<svg width="128" height="128" viewBox="0 0 128 128" xmlns="http://www.w3.org/2000/svg">
  <defs>
    <linearGradient id="grad1" x1="0%" y1="0%" x2="100%" y2="100%">
      <stop offset="0%" style="stop-color:#7A5DFF;stop-opacity:1" />
      <stop offset="100%" style="stop-color:#26A17B;stop-opacity:1" />
    </linearGradient>
  </defs>
  <rect width="128" height="128" rx="20" fill="url(#grad1)"/>
  <path d="M64 32C64 32 48 40 48 56C48 72 56 80 64 88C72 80 80 72 80 56C80 40 64 32 64 32Z" fill="white" opacity="0.9"/>
  <circle cx="64" cy="56" r="8" fill="#7A5DFF"/>
  <path d="M40 88C40 88 32 96 32 104C32 112 40 112 48 112C56 112 64 112 64 104C64 96 56 88 40 88Z" fill="white" opacity="0.8"/>
  <path d="M88 88C88 88 80 96 80 104C80 112 88 112 96 112C104 112 112 112 112 104C112 96 104 88 88 88Z" fill="white" opacity="0.8"/>
  <rect x="56" y="88" width="16" height="24" rx="8" fill="white" opacity="0.9"/>
</svg>